<svg xmlns="http://www.w3.org/2000/svg" viewBox="0 0 1080 1080"><path d="M1080 508.5c-185.3 63.8-242.2 149.6-418.7 323.4-255.7 201.7-120.1-175.4-331.8-62.2C214.6 830.8 112.1 901 42.2 952L2.5 767.5c-5.9-27.3-1.4-55.7 11.5-80.2 17.5-33.3 26.6-70.4 26.6-110.1v-32.7c94.2-39.7 161.5-59 316.8-94.4 10.9-2.7 22.3-3.8 33.1-3.8 32.1 1.6 46.6 16.1 58 41.8 3.2 7 5.2 13.7 6.2 19.7 8.1 45.9 40.7 84.4 85.6 88.3 28 2.5 65-.8 114.2-14.2 192.1-52.5 330.8-75.1 425.5-73.4" fill="#FF7900"/><path d="M974.4 428.3c-2.7-2.4-18 .6-21.4.7-80.1 3.7-161.4 13.7-239 35-22.7 6.2-45.1 13.5-68.3 17.6-25.7 4.6-53.2 4.5-78.4-2.7-15.2-4.4-28.6-13-35.5-28-11.8-25.8-5.5-57.7-26.5-79.4-6.9-7.2-15.6-12-24.7-15.6-75.1-29.5-281.6 22-425 76.2V330.2c0-48.8-14-93.9-40.9-132.5 192-78.8 464.8-130.3 484.5 70.8 0 0 1.6 47.7 59.5 39.7 58.1-8.6 246-28.9 415.7 120.1" fill="#FF4800"/></svg>